<svg width="25.223" height="25.223" fill="none" xmlns="http://www.w3.org/2000/svg"><path d="M18.396 0H6.828A6.835 6.835 0 000 6.828v11.568a6.835 6.835 0 006.828 6.827h11.568a6.835 6.835 0 006.827-6.827V6.828A6.835 6.835 0 0018.396 0zm5.349 18.396c0 2.95-2.4 5.349-5.35 5.349H6.829c-2.95 0-5.35-2.4-5.35-5.35V6.829c0-2.95 2.4-5.35 5.35-5.35h11.568c2.95 0 5.349 2.4 5.349 5.35v11.568z" fill="#FFF"/><path d="M12.612 5.715a6.905 6.905 0 00-6.897 6.897 6.905 6.905 0 006.897 6.897 6.905 6.905 0 006.897-6.897 6.905 6.905 0 00-6.897-6.897zm0 12.315a5.424 5.424 0 01-5.418-5.418 5.424 5.424 0 015.418-5.418 5.424 5.424 0 015.418 5.418 5.424 5.424 0 01-5.418 5.418zm7.061-14.765a2.04 2.04 0 00-2.037 2.038 2.04 2.04 0 002.037 2.039 2.04 2.04 0 002.039-2.039 2.04 2.04 0 00-2.039-2.038zm0 2.598a.56.56 0 11.002-1.12.56.56 0 01-.002 1.12z" fill="#FFF"/></svg>