<svg width="25.223" height="25.223" viewBox="0 0 25.223 25.224" fill="none" xmlns="http://www.w3.org/2000/svg"><path d="M21.64 3.583A12.15 12.15 0 0012.993 0h-.002C11.375 0 9.8.313 8.31.93a12.171 12.171 0 00-3.968 2.653A12.152 12.152 0 00.76 12.232c0 1.948.47 3.885 1.36 5.61L.066 23.715c-.145.415-.043.865.268 1.175a1.124 1.124 0 001.175.269l5.874-2.056c1.725.89 3.661 1.36 5.61 1.36a12.15 12.15 0 008.649-3.582 12.152 12.152 0 003.582-8.649c0-3.267-1.272-6.34-3.582-8.65zm-1.045 16.252a10.681 10.681 0 01-7.603 3.15 10.78 10.78 0 01-5.048-1.258 1.14 1.14 0 00-.909-.07L1.7 23.525l1.868-5.337a1.14 1.14 0 00-.071-.909 10.78 10.78 0 01-1.257-5.047c0-2.872 1.118-5.572 3.15-7.603 2.03-2.03 4.73-3.15 7.602-3.15 2.873 0 5.573 1.119 7.604 3.15a10.681 10.681 0 013.15 7.603c0 2.872-1.12 5.572-3.15 7.603z" fill="#FFF"/><path d="M17.538 13.325a1.445 1.445 0 00-2.042 0l-.615.615a8.958 8.958 0 01-3.598-3.598l.616-.615a1.444 1.444 0 000-2.04l-1.659-1.66a1.445 1.445 0 00-2.04 0L6.872 7.355c-.76.76-.798 2.067-.107 3.68.6 1.4 1.698 2.938 3.092 4.332 1.394 1.394 2.932 2.492 4.332 3.092.766.328 1.463.492 2.065.492.666 0 1.215-.2 1.614-.6l1.327-1.326c.273-.273.423-.635.423-1.02 0-.386-.15-.748-.423-1.02l-1.659-1.66zm-.715 3.98c-.217.217-.884.293-2.05-.207-1.231-.528-2.605-1.514-3.87-2.778-1.263-1.264-2.25-2.638-2.777-3.87-.5-1.166-.424-1.833-.207-2.05L9.22 7.1l1.607 1.607-.77.77a1.129 1.129 0 00-.209 1.315 10.436 10.436 0 004.584 4.584c.438.223.966.14 1.315-.21l.77-.77 1.607 1.608-1.3 1.3z" fill="#FFF"/></svg>